<svg width="58" height="40" viewBox="0 0 58 40" fill="none" xmlns="http://www.w3.org/2000/svg">
<path d="M22.7361 28.472V11.7417L37.536 20.2499L22.7361 28.472Z" fill="#02474F"/>
<path d="M4.83549 4.78016C5.10733 4.50831 5.82837 4.08323 7.33014 3.69388C8.76237 3.32256 10.6099 3.05597 12.8074 2.87356C17.205 2.50854 22.6321 2.50674 28.2414 2.50674C29.3713 2.50674 30.4939 2.50264 31.6032 2.4986C36.0486 2.48237 40.2799 2.46693 43.9092 2.71914C46.1668 2.87602 48.0787 3.13074 49.583 3.51825C51.1356 3.91819 51.9725 4.39043 52.3622 4.78014C52.7341 5.15206 53.1963 5.98758 53.6038 7.41983C53.9921 8.78465 54.2538 10.409 54.4236 12.0577C54.7298 15.0302 54.7142 17.823 54.7083 18.8927C54.7077 19.0084 54.7071 19.104 54.7071 19.1774C54.7071 19.2399 54.7075 19.3224 54.7079 19.4236C54.7125 20.5213 54.7261 23.8039 54.4085 27.2666C54.2347 29.1616 53.9679 31.032 53.5721 32.583C53.149 34.2409 52.6777 35.1181 52.3622 35.4336C52.0789 35.7169 51.3325 36.1479 49.7746 36.5257C48.2887 36.886 46.3753 37.1271 44.1036 37.2784C40.2542 37.5349 35.6783 37.5181 30.891 37.5005C30.0153 37.4973 29.1325 37.4941 28.2459 37.4925C27.1758 37.4906 26.1139 37.4919 25.0653 37.4931C20.6181 37.4985 16.4108 37.5037 12.8405 37.2618C10.642 37.1129 8.79524 36.8758 7.35877 36.5207C5.85936 36.15 5.12738 35.7255 4.83548 35.4336C3.96392 34.562 3.27589 32.8652 2.89323 29.891C2.52011 26.991 2.49056 23.395 2.49057 19.1774C2.49057 15.1318 2.85166 11.6583 3.38316 9.05356C3.64939 7.74879 3.9497 6.70509 4.24774 5.93589C4.39625 5.5526 4.53402 5.26401 4.65135 5.05803C4.75999 4.86731 4.82695 4.79013 4.83521 4.78062C4.83625 4.77942 4.83635 4.7793 4.83549 4.78016Z" stroke="#02474F" stroke-width="4.98113"/>
</svg>
